<?xml version="1.0" encoding="iso-8859-1"?>
<!-- Generator: Adobe Illustrator 19.0.0, SVG Export Plug-In . SVG Version: 6.00 Build 0)  -->
<svg version="1.1" id="Capa_1" xmlns="http://www.w3.org/2000/svg" xmlns:xlink="http://www.w3.org/1999/xlink" x="0px" y="0px"
	 viewBox="0 0 512 512" style="enable-background:new 0 0 512 512;" xml:space="preserve">
<path style="fill:#57555C;" d="M105,211L105,211C47.01,211,0,163.99,0,106l0,0C0,48.01,47.01,0,105,0l0,0c57.99,0,106,48.01,106,106
	l0,0C211,163.99,162.99,211,105,211z"/>
<path style="fill:#3C3A41;" d="M407,211L407,211c-57.99,0-106-47.01-106-105l0,0C301,48.01,349.01,0,407,0l0,0
	c57.99,0,105,48.01,105,106l0,0C512,163.99,464.99,211,407,211z"/>
<path style="fill:#E5E5E5;" d="M472.099,186.099C426.2,108.699,352.599,61,281.8,61h-2.699c-7.5,0.3-15.3,0.3-23.101,0.3
	c-7.2,0-14.7-0.3-21.899-0.3C163.299,59.5,87.9,107.8,41.4,186.099c-45.6,76.2-52.5,162.401-17.999,223.3
	C48.9,455.6,110.799,510.5,254.5,512c0.599,0,1.199,0,1.5-0.3c0.3,0,0.3,0,0.601,0c0.899,0.3,1.5,0.3,2.399,0.3
	c143.701-1.5,205.6-56.4,231.101-102.601C524.599,348.5,517.7,262.299,472.099,186.099z"/>
<path style="fill:#D9D9D9;" d="M490.101,409.399C464.599,455.6,402.7,510.5,258.999,512c-0.899,0-1.5,0-2.399-0.3
	c-0.3,0-0.3,0-0.601,0V61.3c7.8,0,15.601,0,23.101-0.3h2.699c70.8,0,144.401,47.699,190.3,125.099
	C517.7,262.299,524.599,348.5,490.101,409.399z"/>
<path style="fill:#787780;" d="M93.442,320.633c-30.082-30.052-23.798-83.257,10.605-117.66
	c35.083-35.098,88.437-39.873,117.675-10.605c29.238,29.238,24.478,82.577-10.605,117.66
	C174.063,347.082,121.015,348.237,93.442,320.633z"/>
<path style="fill:#57555C;" d="M300.883,310.027c-35.083-35.083-39.844-88.422-10.605-117.66s82.592-24.492,117.675,10.605
	c34.416,34.416,40.676,87.62,10.605,117.66C390.846,348.345,337.78,346.952,300.883,310.027z"/>
<path style="fill:#787780;" d="M362,392c0,32.999-28.001,60-61,60c-17.999,0-33.9-8.101-45-20.7c-11.1,12.599-27.001,20.7-45,20.7
	c-32.999,0-60-27.001-60-60c0-8.401,6.599-15,15-15s15,6.599,15,15c0,16.5,13.5,30,30,30s30-13.5,30-30c0-8.401,6.599-15,15-15
	s15,6.599,15,15c0,16.5,13.5,30,30,30s31-13.5,31-30c0-8.401,6.599-15,15-15S362,383.599,362,392z"/>
<g>
	<path style="fill:#57555C;" d="M362,392c0,32.999-28.001,60-61,60c-17.999,0-33.9-8.101-45-20.7V377c8.401,0,15,6.599,15,15
		c0,16.5,13.5,30,30,30s31-13.5,31-30c0-8.401,6.599-15,15-15S362,383.599,362,392z"/>
	<circle style="fill:#57555C;" cx="158.08" cy="256" r="15"/>
</g>
<circle style="fill:#3C3A41;" cx="354.92" cy="256" r="15"/>
<path style="fill:#57555C;" d="M256,317c-24.901,0-45,20.099-45,45c0,24.899,20.099,45,45,45s45-20.101,45-45
	C301,337.099,280.901,317,256,317z"/>
<path style="fill:#3C3A41;" d="M301,362c0,24.899-20.099,45-45,45v-90C280.901,317,301,337.099,301,362z"/>
<g>
</g>
<g>
</g>
<g>
</g>
<g>
</g>
<g>
</g>
<g>
</g>
<g>
</g>
<g>
</g>
<g>
</g>
<g>
</g>
<g>
</g>
<g>
</g>
<g>
</g>
<g>
</g>
<g>
</g>
</svg>
